<svg width="30" height="30" viewBox="0 0 30 30" fill="none" xmlns="http://www.w3.org/2000/svg">
<circle cx="15" cy="15" r="15" fill="white"/>
<path d="M18.6591 9.90909C18.5568 9.04545 18.142 8.375 17.4148 7.89773C16.6875 7.42045 15.7955 7.18182 14.7386 7.18182C13.9659 7.18182 13.2898 7.30682 12.7102 7.55682C12.1364 7.80682 11.6875 8.15057 11.3636 8.58807C11.0455 9.02557 10.8864 9.52273 10.8864 10.0795C10.8864 10.5455 10.9972 10.946 11.2188 11.2812C11.446 11.6108 11.7358 11.8864 12.0881 12.108C12.4403 12.3239 12.8097 12.5028 13.196 12.6449C13.5824 12.7812 13.9375 12.892 14.2614 12.9773L16.0341 13.4545C16.4886 13.5739 16.9943 13.7386 17.5511 13.9489C18.1136 14.1591 18.6506 14.446 19.1619 14.8097C19.679 15.1676 20.1051 15.6278 20.4403 16.1903C20.7756 16.7528 20.9432 17.4432 20.9432 18.2614C20.9432 19.2045 20.696 20.0568 20.2017 20.8182C19.7131 21.5795 18.9972 22.1847 18.054 22.6335C17.1165 23.0824 15.9773 23.3068 14.6364 23.3068C13.3864 23.3068 12.304 23.1051 11.3892 22.7017C10.4801 22.2983 9.7642 21.7358 9.24148 21.0142C8.72443 20.2926 8.43182 19.4545 8.36364 18.5H10.5455C10.6023 19.1591 10.8239 19.7045 11.2102 20.1364C11.6023 20.5625 12.0966 20.8807 12.6932 21.0909C13.2955 21.2955 13.9432 21.3977 14.6364 21.3977C15.4432 21.3977 16.1676 21.267 16.8097 21.0057C17.4517 20.7386 17.9602 20.3693 18.3352 19.8977C18.7102 19.4205 18.8977 18.8636 18.8977 18.2273C18.8977 17.6477 18.7358 17.1761 18.4119 16.8125C18.0881 16.4489 17.6619 16.1534 17.1335 15.9261C16.6051 15.6989 16.0341 15.5 15.4205 15.3295L13.2727 14.7159C11.9091 14.3239 10.8295 13.7642 10.0341 13.0369C9.23864 12.3097 8.84091 11.358 8.84091 10.1818C8.84091 9.20454 9.10511 8.35227 9.63352 7.625C10.1676 6.89205 10.8835 6.32386 11.7812 5.92045C12.6847 5.51136 13.6932 5.30682 14.8068 5.30682C15.9318 5.30682 16.9318 5.50852 17.8068 5.91193C18.6818 6.30966 19.375 6.85511 19.8864 7.54829C20.4034 8.24148 20.6761 9.02841 20.7045 9.90909H18.6591Z" fill="#084025"/>
<path d="M16.9497 11L18.3639 12.4142L13.4142 17.364L12 15.9497L16.9497 11Z" fill="white"/>
<path d="M12.5 17L18 11.5" stroke="black" stroke-width="0.5"/>
</svg>
